<?xml version="1.0" encoding="utf-8" ?>
<svg baseProfile="full" height="250px" version="1.1" width="400px" xmlns="http://www.w3.org/2000/svg" xmlns:ev="http://www.w3.org/2001/xml-events" xmlns:xlink="http://www.w3.org/1999/xlink"><defs><clipPath id="border_clip"><rect height="250" width="400" x="0" y="0" /></clipPath></defs><polyline clip-path="url(#border_clip)" fill="none" points="214.12912349751952,115.30935831825428 231.61422601900816,122.90421011434606 250.49999999999986,125.50000000000011 300.5,25.5 310.06708580912726,23.596988312782173 318.1776695296637,18.17766952966369 323.5969883127822,10.06708580912725 325.5,0.5 323.5969883127822,-9.067085809127263 318.1776695296637,-17.177669529663717 310.06708580912726,-22.5969883127822 300.5,-24.50000000000003 290.9329141908728,-22.5969883127822 282.82233047033634,-17.177669529663717 277.4030116872178,-9.067085809127263 275.5,0.4999999999999858 277.4030116872178,10.067085809127235 282.8223304703363,18.17766952966369 290.93291419087274,23.596988312782173 300.5,25.500000000000014" stroke="#ffffff" stroke-linecap="round" stroke-width="1" /><polyline clip-path="url(#border_clip)" fill="none" points="200.5,125.5 215.95084971874738,123.05282581475768 229.88926261462365,115.95084971874738 240.95084971874738,104.88926261462366 248.05282581475768,90.95084971874738 250.5,75.5 248.05282581475768,60.049150281252636 240.9508497187474,46.11073738537635 229.88926261462368,35.049150281252636 215.9508497187474,27.947174185242332 200.50000000000003,25.500000000000014 185.04915028125268,27.947174185242332 171.11073738537638,35.049150281252636 160.04915028125268,46.11073738537634 152.94717418524237,60.04915028125261 150.50000000000006,75.49999999999997 152.94717418524235,90.95084971874732 160.04915028125265,104.88926261462359 171.11073738537635,115.9508497187473 185.04915028125262,123.05282581475761 200.49999999999997,125.49999999999994 250.49999999999991,125.49999999999997 269.3857739809916,122.90421011434593 286.8708765024802,115.3093583182542 301.65851749946853,103.2787200253058 312.65196528816614,87.70455264118068 319.0358861377625,69.74192091368442 320.3368138433376,50.723031064473105 316.45826454831735,32.05842714803106 307.6878925107309,15.1323774519594 294.6761561028236,1.2002096506907094 278.38807628923684,-8.704791105381616 260.03166543673717,-13.848016222543066 240.9683345632627,-13.848016222543066 222.61192371076305,-8.704791105381645 206.32384389717623,1.2002096506906668 193.31210748926898,15.132377451959343 184.54173545168248,32.058427148031 180.66318615666216,50.72303106447306 181.96411386223727,69.7419209136844 188.3480347118336,87.7045526411807 199.34148250053116,103.27872002530586 214.12912349751952,115.30935831825428" stroke="#ffffff" stroke-linecap="round" stroke-width="1" /></svg>